<?xml version="1.0" standalone="no"?>
<!DOCTYPE svg PUBLIC "-//W3C//DTD SVG 20010904//EN"
 "http://www.w3.org/TR/2001/REC-SVG-20010904/DTD/svg10.dtd">
<svg version="1.0" xmlns="http://www.w3.org/2000/svg"
 width="1233.000000pt" height="1190.000000pt" viewBox="0 0 1233.000000 1190.000000"
 preserveAspectRatio="xMidYMid meet">

<g transform="translate(0.000000,1190.000000) scale(0.100000,-0.100000)"
fill="#000000" stroke="none">
<path d="M9045 10472 c-291 -88 -622 -418 -1047 -1042 -189 -277 -316 -479
-788 -1255 -209 -343 -434 -687 -541 -825 -95 -123 -228 -261 -290 -301 l-48
-31 -30 21 c-33 24 -109 111 -163 186 -176 248 -377 711 -539 1240 -179 585
-286 878 -419 1150 -178 362 -377 598 -602 715 -216 113 -488 108 -720 -11
-105 -55 -257 -202 -344 -334 -325 -492 -553 -1380 -683 -2670 -96 -949 -148
-2369 -112 -3040 101 -1859 383 -2982 799 -3187 59 -29 76 -33 152 -33 78 0
90 3 148 34 294 160 490 789 591 1896 33 356 80 1199 66 1170 -2 -5 -47 -156
-99 -335 -126 -435 -209 -701 -316 -1023 -91 -269 -214 -609 -232 -637 -14
-23 -2 715 16 980 16 228 34 470 61 795 32 383 55 773 65 1085 10 311 34 861
45 1020 3 41 10 149 15 240 26 401 84 1023 125 1355 35 278 118 791 129 803 2
2 27 -68 56 -155 242 -732 443 -1225 638 -1568 68 -121 202 -320 275 -410 161
-199 398 -392 570 -464 176 -73 376 -109 537 -96 711 56 1274 555 1775 1570
150 305 279 611 530 1260 164 421 248 627 335 817 61 133 168 338 176 338 18
0 106 -237 169 -458 112 -388 283 -1240 386 -1919 13 -84 26 -153 29 -153 4 0
8 24 9 53 1 28 8 165 16 302 28 496 38 865 31 1250 -7 400 -8 424 -32 655 -60
581 -182 864 -426 985 -68 33 -87 38 -165 41 -65 3 -104 -1 -148 -14z"/>
</g>
</svg>
