<?xml version="1.0" standalone="no"?>
<!DOCTYPE svg PUBLIC "-//W3C//DTD SVG 20010904//EN"
 "http://www.w3.org/TR/2001/REC-SVG-20010904/DTD/svg10.dtd">
<svg version="1.0" xmlns="http://www.w3.org/2000/svg"
 width="512.000000pt" height="512.000000pt" viewBox="0 0 512.000000 512.000000"
 preserveAspectRatio="xMidYMid meet">

<g transform="translate(0.000000,512.000000) scale(0.100000,-0.100000)"
fill="#000000" stroke="none">
<path d="M3700 4464 c-234 -50 -436 -254 -485 -489 -60 -285 79 -575 335 -703
122 -61 187 -72 433 -72 208 0 208 0 232 25 16 15 25 36 25 55 0 19 -9 40 -25
55 -24 25 -25 25 -218 25 -107 0 -218 5 -248 10 -196 37 -353 204 -382 404
-45 311 227 584 537 539 156 -22 294 -121 361 -257 41 -82 55 -149 55 -253 0
-65 -3 -77 -25 -98 -29 -30 -74 -32 -106 -6 -22 17 -25 30 -30 123 -4 73 -12
117 -26 150 -82 183 -314 248 -479 135 -204 -141 -174 -455 54 -560 37 -17 65
-22 132 -21 85 0 129 15 202 66 14 10 21 8 40 -9 94 -88 243 -81 331 17 54 60
67 103 67 216 -1 194 -62 347 -189 474 -158 157 -375 221 -591 174z m233 -497
c98 -74 82 -219 -29 -272 -107 -50 -235 43 -221 161 13 121 155 184 250 111z"/>
<path d="M2307 4315 c-28 -247 -122 -515 -263 -751 l-57 -96 57 -57 57 -58
-125 -121 c-104 -100 -139 -128 -208 -162 -46 -22 -121 -49 -168 -59 -66 -14
-100 -29 -155 -65 -215 -143 -503 -251 -772 -290 -90 -13 -30 -14 697 -15 496
-1 808 3 831 9 47 13 96 63 109 110 7 24 9 318 8 831 -2 465 -6 765 -11 724z"/>
<path d="M2307 1915 c-28 -243 -124 -520 -257 -741 l-50 -83 0 -146 0 -145
-120 0 -120 0 -69 -63 c-278 -256 -639 -426 -1018 -481 -90 -13 -30 -14 697
-15 496 -1 808 3 831 9 47 13 96 63 109 110 7 24 9 318 8 831 -2 465 -6 765
-11 724z"/>
</g>
</svg>
