<svg xmlns="http://www.w3.org/2000/svg" width="32" height="32" viewBox="0 0 32 32">
  <g id="Group_2284" data-name="Group 2284" transform="translate(-323 -52)">
    <g id="Rectangle_392" data-name="Rectangle 392" transform="translate(323 52)" fill="#fff" stroke="#bbbdc1" stroke-width="1">
      <rect width="32" height="32" rx="7" stroke="none"/>
      <rect x="0.5" y="0.5" width="31" height="31" rx="6.5" fill="none"/>
    </g>
    <path id="Icon" d="M7.645,13.634a1.184,1.184,0,0,1-1.713,0L.355,7.883a1.275,1.275,0,0,1,0-1.766L5.932.367a1.184,1.184,0,0,1,1.713,0,1.275,1.275,0,0,1,0,1.766L2.931,6.994l4.714,4.861A1.3,1.3,0,0,1,7.645,13.634Z" transform="translate(343 75) rotate(180)" fill="#bbbdc1"/>
  </g>
</svg>
