<svg id="Group_2283" data-name="Group 2283" xmlns="http://www.w3.org/2000/svg" width="14.5" height="11.5" viewBox="0 0 14.5 11.5">
  <path id="Op_component_1" data-name="Op component 1" d="M676.764,120h12.473a1.037,1.037,0,0,0,0-2H676.764a1.037,1.037,0,0,0,0,2Z" transform="translate(-676 -118)" fill="#bbbdc1"/>
  <path id="Op_component_1-2" data-name="Op component 1" d="M676.655,120h10.691c.361,0,.655-.448.655-1s-.293-1-.655-1H676.655c-.361,0-.654.448-.654,1S676.293,120,676.655,120Z" transform="translate(-674 -113.5)" fill="#bbbdc1" stroke="rgba(0,0,0,0)" stroke-miterlimit="10" stroke-width="1"/>
  <path id="Op_component_1-3" data-name="Op component 1" d="M676.546,120h8.909c.3,0,.545-.448.545-1s-.244-1-.545-1h-8.909c-.3,0-.545.448-.545,1S676.244,120,676.546,120Z" transform="translate(-672 -109)" fill="#bbbdc1" stroke="rgba(0,0,0,0)" stroke-miterlimit="10" stroke-width="1"/>
</svg>
