<svg xmlns="http://www.w3.org/2000/svg" width="14.769" height="18" viewBox="0 0 14.769 18">
  <path id="Icon" d="M519.384,4118.5a1.848,1.848,0,0,1-1.846-1.846h3.692A1.848,1.848,0,0,1,519.384,4118.5Zm7.385-2.769H512v-.924l1.846-1.846v-4.615a6.544,6.544,0,0,1,1.087-3.748,5.1,5.1,0,0,1,3.066-2.086v-.627a1.385,1.385,0,1,1,2.77,0v.627a5.094,5.094,0,0,1,3.07,2.09,6.548,6.548,0,0,1,1.083,3.744v4.615l1.846,1.846v.923Zm-7.385-11.539a3.429,3.429,0,0,0-2.708,1.219,4.533,4.533,0,0,0-.984,2.936v5.538h7.385v-5.538a4.532,4.532,0,0,0-.984-2.936A3.43,3.43,0,0,0,519.384,4104.191Z" transform="translate(-512 -4100.5)"/>
</svg>
