<svg xmlns="http://www.w3.org/2000/svg" width="15" height="15" viewBox="0 0 15 15">
  <path id="sliders-v" d="M5.75,5H5V2.75a.75.75,0,1,0-1.5,0V5H2.75a.75.75,0,1,0,0,1.5h3a.75.75,0,0,0,0-1.5ZM4.25,8a.75.75,0,0,0-.75.75v7.5a.75.75,0,1,0,1.5,0V8.75A.75.75,0,0,0,4.25,8ZM9.5,14a.75.75,0,0,0-.75.75v1.5a.75.75,0,1,0,1.5,0v-1.5A.75.75,0,0,0,9.5,14Zm6.75-6H15.5V2.75a.75.75,0,0,0-1.5,0V8h-.75a.75.75,0,0,0,0,1.5h3a.75.75,0,0,0,0-1.5Zm-1.5,3a.75.75,0,0,0-.75.75v4.5a.75.75,0,0,0,1.5,0v-4.5A.75.75,0,0,0,14.75,11ZM11,11h-.75V2.75a.75.75,0,1,0-1.5,0V11H8a.75.75,0,1,0,0,1.5h3A.75.75,0,1,0,11,11Z" transform="translate(17 -2) rotate(90)" fill="#bbbdc1"/>
</svg>
