<svg xmlns="http://www.w3.org/2000/svg" width="18" height="18" viewBox="0 0 18 18">
  <path id="path4" d="M15.2,12.784c-.181-.09-1.356-.629-1.537-.719a.428.428,0,0,0-.543.09c-.181.18-.543.719-.723.9-.09.18-.271.18-.452.09a7.4,7.4,0,0,1-1.808-1.079,10.361,10.361,0,0,1-1.266-1.528.394.394,0,0,1,.09-.449c.09-.09.181-.27.362-.36a.68.68,0,0,0,.181-.36.272.272,0,0,0,0-.36,15.931,15.931,0,0,1-.723-1.618c-.09-.629-.271-.629-.452-.629H7.878a1.034,1.034,0,0,0-.543.27,2.58,2.58,0,0,0-.814,1.888,4.692,4.692,0,0,0,.9,2.337,9.623,9.623,0,0,0,3.8,3.326,7.115,7.115,0,0,0,1.266.449,2.6,2.6,0,0,0,1.447.09,2.342,2.342,0,0,0,1.537-1.079,1.5,1.5,0,0,0,.09-1.079l-.362-.18M17.462,4.6a9.043,9.043,0,0,0-12.75,0A8.942,8.942,0,0,0,3.266,15.391L2,19.975l4.792-1.258a9.043,9.043,0,0,0,4.25,1.079h0a8.888,8.888,0,0,0,8.952-8.9A8.727,8.727,0,0,0,17.462,4.6M15.021,17.188a7.622,7.622,0,0,1-3.979,1.169h0a7.966,7.966,0,0,1-3.8-.989l-.271-.18-2.8.719.723-2.7-.181-.27A7.521,7.521,0,0,1,7.154,4.6a7.42,7.42,0,1,1,7.867,12.584" transform="translate(-2 -1.975)" fill="#fff"/>
</svg>
